<?xml version="1.0" encoding="UTF-8" standalone="no"?>
<!-- Created with Inkscape (http://www.inkscape.org/) -->

<svg
   xmlns:dc="http://purl.org/dc/elements/1.1/"
   xmlns:cc="http://creativecommons.org/ns#"
   xmlns:rdf="http://www.w3.org/1999/02/22-rdf-syntax-ns#"
   xmlns:svg="http://www.w3.org/2000/svg"
   xmlns="http://www.w3.org/2000/svg"
   xmlns:xlink="http://www.w3.org/1999/xlink"
   xmlns:sodipodi="http://sodipodi.sourceforge.net/DTD/sodipodi-0.dtd"
   xmlns:inkscape="http://www.inkscape.org/namespaces/inkscape"
   id="svg8"
   version="1.1"
   viewBox="0 0 210 297"
   height="297mm"
   width="210mm"
   inkscape:version="0.92.3 (2405546, 2018-03-11)"
   sodipodi:docname="christmas-tree-seed.svg">
  <sodipodi:namedview
     inkscape:window-maximized="1"
     inkscape:window-y="0"
     inkscape:window-x="0"
     inkscape:window-height="1023"
     inkscape:window-width="1920"
     inkscape:snap-nodes="false"
     showgrid="false"
     inkscape:current-layer="layer2"
     inkscape:document-units="px"
     inkscape:cy="575.45213"
     inkscape:cx="405.40898"
     inkscape:zoom="0.7"
     inkscape:pageshadow="2"
     inkscape:pageopacity="0.0"
     borderopacity="1.0"
     bordercolor="#666666"
     pagecolor="#ffffff"
     id="base" />
  <defs
     id="defs2">
    <linearGradient
       id="linearGradient2611"
       inkscape:collect="always">
      <stop
         id="stop2607"
         offset="0"
         style="stop-color:#bf9b85;stop-opacity:1" />
      <stop
         id="stop2609"
         offset="1"
         style="stop-color:#eed1b7;stop-opacity:1" />
    </linearGradient>
    <linearGradient
       inkscape:collect="always"
       id="linearGradient2603">
      <stop
         style="stop-color:#000000;stop-opacity:1;"
         offset="0"
         id="stop2599" />
      <stop
         style="stop-color:#000000;stop-opacity:0;"
         offset="1"
         id="stop2601" />
    </linearGradient>
    <linearGradient
       inkscape:collect="always"
       id="linearGradient2595">
      <stop
         style="stop-color:#906654;stop-opacity:1"
         offset="0"
         id="stop2591" />
      <stop
         id="stop2597"
         offset="0.74528438"
         style="stop-color:#d6b59d;stop-opacity:1;" />
      <stop
         style="stop-color:#eed1b7;stop-opacity:1"
         offset="1"
         id="stop2593" />
    </linearGradient>
    <linearGradient
       id="linearGradient2539"
       inkscape:collect="always">
      <stop
         id="stop2535"
         offset="0"
         style="stop-color:#906654;stop-opacity:1" />
      <stop
         id="stop2537"
         offset="1"
         style="stop-color:#eed1b7;stop-opacity:1" />
    </linearGradient>
    <linearGradient
       inkscape:collect="always"
       id="linearGradient2458">
      <stop
         style="stop-color:#794b3b;stop-opacity:1"
         offset="0"
         id="stop2454" />
      <stop
         style="stop-color:#4b160a;stop-opacity:1"
         offset="1"
         id="stop2456" />
    </linearGradient>
    <linearGradient
       inkscape:collect="always"
       id="linearGradient2424">
      <stop
         style="stop-color:#eed1b7;stop-opacity:1;"
         offset="0"
         id="stop2420" />
      <stop
         style="stop-color:#eed1b7;stop-opacity:0;"
         offset="1"
         id="stop2422" />
    </linearGradient>
    <linearGradient
       inkscape:collect="always"
       id="linearGradient923">
      <stop
         style="stop-color:#a8806c;stop-opacity:1"
         offset="0"
         id="stop919" />
      <stop
         style="stop-color:#eed1b7;stop-opacity:1"
         offset="1"
         id="stop921" />
    </linearGradient>
    <linearGradient
       inkscape:collect="always"
       xlink:href="#linearGradient923"
       id="linearGradient925"
       x1="128.6691"
       y1="105.94753"
       x2="126.94331"
       y2="140.15437"
       gradientUnits="userSpaceOnUse" />
    <linearGradient
       inkscape:collect="always"
       xlink:href="#linearGradient2611"
       id="linearGradient939"
       gradientUnits="userSpaceOnUse"
       x1="136.19241"
       y1="106.88818"
       x2="117.00358"
       y2="146.19771"
       gradientTransform="translate(-34.564873,-26.089971)" />
    <linearGradient
       inkscape:collect="always"
       xlink:href="#linearGradient2424"
       id="linearGradient2428"
       x1="162.6335"
       y1="59.078304"
       x2="132.83295"
       y2="91.017014"
       gradientUnits="userSpaceOnUse" />
    <filter
       style="color-interpolation-filters:sRGB;"
       inkscape:label="Blur"
       id="filter2432">
      <feGaussianBlur
         stdDeviation="0.3 0.01"
         result="fbSourceGraphic"
         id="feGaussianBlur2430" />
      <feColorMatrix
         result="fbSourceGraphicAlpha"
         in="fbSourceGraphic"
         values="0 0 0 -1 0 0 0 0 -1 0 0 0 0 -1 0 0 0 0 1 0"
         id="feColorMatrix2434" />
      <feGaussianBlur
         id="feGaussianBlur2436"
         stdDeviation="0.3 0.01"
         result="fbSourceGraphic"
         in="fbSourceGraphic" />
      <feColorMatrix
         result="fbSourceGraphicAlpha"
         in="fbSourceGraphic"
         values="0 0 0 -1 0 0 0 0 -1 0 0 0 0 -1 0 0 0 0 1 0"
         id="feColorMatrix2438" />
      <feGaussianBlur
         id="feGaussianBlur2440"
         stdDeviation="0.3 0.01"
         result="fbSourceGraphic"
         in="fbSourceGraphic" />
      <feColorMatrix
         result="fbSourceGraphicAlpha"
         in="fbSourceGraphic"
         values="0 0 0 -1 0 0 0 0 -1 0 0 0 0 -1 0 0 0 0 1 0"
         id="feColorMatrix2442" />
      <feGaussianBlur
         id="feGaussianBlur2444"
         stdDeviation="0.3 0.01"
         result="fbSourceGraphic"
         in="fbSourceGraphic" />
      <feColorMatrix
         result="fbSourceGraphicAlpha"
         in="fbSourceGraphic"
         values="0 0 0 -1 0 0 0 0 -1 0 0 0 0 -1 0 0 0 0 1 0"
         id="feColorMatrix2446" />
      <feGaussianBlur
         id="feGaussianBlur2448"
         stdDeviation="0.3 0.01"
         result="fbSourceGraphic"
         in="fbSourceGraphic" />
      <feColorMatrix
         result="fbSourceGraphicAlpha"
         in="fbSourceGraphic"
         values="0 0 0 -1 0 0 0 0 -1 0 0 0 0 -1 0 0 0 0 1 0"
         id="feColorMatrix2450" />
      <feGaussianBlur
         id="feGaussianBlur2452"
         stdDeviation="0.6 0.01"
         result="blur"
         in="fbSourceGraphic" />
    </filter>
    <linearGradient
       inkscape:collect="always"
       xlink:href="#linearGradient2458"
       id="linearGradient2460"
       x1="79.561012"
       y1="111.11073"
       x2="159.91335"
       y2="83.448326"
       gradientUnits="userSpaceOnUse" />
    <linearGradient
       inkscape:collect="always"
       xlink:href="#linearGradient2539"
       id="linearGradient2470"
       x1="54.0495"
       y1="91.144699"
       x2="125.01641"
       y2="91.522667"
       gradientUnits="userSpaceOnUse" />
    <linearGradient
       inkscape:collect="always"
       xlink:href="#linearGradient2539"
       id="linearGradient2521"
       x1="124.54316"
       y1="86.231018"
       x2="58.208328"
       y2="87.081467"
       gradientUnits="userSpaceOnUse"
       gradientTransform="translate(-0.56696429,1.7008929)" />
    <linearGradient
       inkscape:collect="always"
       xlink:href="#linearGradient2539"
       id="linearGradient2525"
       gradientUnits="userSpaceOnUse"
       x1="124.54316"
       y1="86.231018"
       x2="58.208328"
       y2="87.081467"
       gradientTransform="translate(-2.6458333,5.0081845)" />
    <linearGradient
       inkscape:collect="always"
       xlink:href="#linearGradient2539"
       id="linearGradient2553"
       gradientUnits="userSpaceOnUse"
       x1="54.0495"
       y1="91.144699"
       x2="125.01641"
       y2="91.522667"
       gradientTransform="translate(-6.1421131,5.4806548)" />
    <linearGradient
       inkscape:collect="always"
       xlink:href="#linearGradient2539"
       id="linearGradient2555"
       gradientUnits="userSpaceOnUse"
       gradientTransform="translate(-6.7090774,7.1815477)"
       x1="124.54316"
       y1="86.231018"
       x2="58.208328"
       y2="87.081467" />
    <linearGradient
       inkscape:collect="always"
       xlink:href="#linearGradient2539"
       id="linearGradient2557"
       gradientUnits="userSpaceOnUse"
       gradientTransform="translate(-8.7879464,10.488839)"
       x1="124.54316"
       y1="86.231018"
       x2="58.208328"
       y2="87.081467" />
    <linearGradient
       inkscape:collect="always"
       xlink:href="#linearGradient2539"
       id="linearGradient2565"
       gradientUnits="userSpaceOnUse"
       gradientTransform="translate(-6.7090774,11.339286)"
       x1="54.0495"
       y1="91.144699"
       x2="125.01641"
       y2="91.522667" />
    <linearGradient
       inkscape:collect="always"
       xlink:href="#linearGradient2539"
       id="linearGradient2567"
       gradientUnits="userSpaceOnUse"
       gradientTransform="translate(-7.2760417,13.040179)"
       x1="124.54316"
       y1="86.231018"
       x2="58.208328"
       y2="87.081467" />
    <linearGradient
       inkscape:collect="always"
       xlink:href="#linearGradient2595"
       id="linearGradient2569"
       gradientUnits="userSpaceOnUse"
       gradientTransform="translate(-9.3549107,16.34747)"
       x1="124.54316"
       y1="86.231018"
       x2="58.208328"
       y2="87.081467" />
    <linearGradient
       inkscape:collect="always"
       xlink:href="#linearGradient2539"
       id="linearGradient2577"
       gradientUnits="userSpaceOnUse"
       gradientTransform="translate(-4.2522322,17.481399)"
       x1="54.0495"
       y1="91.144699"
       x2="125.01641"
       y2="91.522667" />
    <linearGradient
       inkscape:collect="always"
       xlink:href="#linearGradient2539"
       id="linearGradient2579"
       gradientUnits="userSpaceOnUse"
       gradientTransform="translate(-4.8191965,19.182292)"
       x1="124.54316"
       y1="86.231018"
       x2="58.208328"
       y2="87.081467" />
    <linearGradient
       inkscape:collect="always"
       xlink:href="#linearGradient2539"
       id="linearGradient2581"
       gradientUnits="userSpaceOnUse"
       gradientTransform="translate(-6.8980655,22.489583)"
       x1="124.54316"
       y1="86.231018"
       x2="58.208328"
       y2="87.081467" />
    <linearGradient
       inkscape:collect="always"
       xlink:href="#linearGradient2539"
       id="linearGradient2589"
       gradientUnits="userSpaceOnUse"
       gradientTransform="translate(-2.7403274,-1.1339285)"
       x1="124.54316"
       y1="86.231018"
       x2="58.208328"
       y2="87.081467" />
    <linearGradient
       inkscape:collect="always"
       xlink:href="#linearGradient2603"
       id="linearGradient2605"
       x1="50.837802"
       y1="100.35146"
       x2="121.2489"
       y2="100.35146"
       gradientUnits="userSpaceOnUse" />
  </defs>
  <metadata
     id="metadata5">
    <rdf:RDF>
      <cc:Work
         rdf:about="">
        <dc:format>image/svg+xml</dc:format>
        <dc:type
           rdf:resource="http://purl.org/dc/dcmitype/StillImage" />
        <dc:title></dc:title>
      </cc:Work>
    </rdf:RDF>
  </metadata>
  <g
     style="display:inline"
     inkscape:label="Layer 2"
     id="layer2"
     inkscape:groupmode="layer">
    <path
       sodipodi:nodetypes="ccccsssssssaccc"
       inkscape:connector-curvature="0"
       id="path832"
       d="m 159.71489,94.206164 v 1.51191 c -9.13227,2.15802 -16.77175,7.251176 -28.15922,4.913686 -5.41146,-1.813136 -36.465604,16.18238 -58.208343,19.84375 -1.620003,-0.56361 -1.171572,0.32401 -1.450624,0.0884 -0.672511,-0.56783 -0.940803,0.0305 -1.40412,0.0323 -10.087255,0.0405 -17.961413,-4.10058 -25.303297,-9.38325 -0.308888,-0.22225 -0.454598,-0.68657 -0.43594,-1.08414 0.0154,-0.32828 -0.557252,-0.30958 -1.191665,-0.50245 -0.250593,-0.0762 0.01635,-0.49727 -0.06562,-0.76295 -0.08631,-0.27974 -0.515882,-0.40897 -0.56238,-0.67256 -0.52241,-2.96151 1.069203,-6.04954 2.596769,-8.639906 4.038551,-6.84837 12.495509,-16.70123 16.666577,-17.06213 23.830669,-6.76392 53.916123,0.22653 80.697923,0.94495 z"
       style="fill:url(#linearGradient939);stroke:none;stroke-width:0.26458332;stroke-linecap:butt;stroke-linejoin:miter;stroke-miterlimit:4;stroke-dasharray:none;stroke-opacity:1"
       inkscape:export-filename="/home/steve/Desktop/christmas-tree-seed.png"
       inkscape:export-xdpi="96"
       inkscape:export-ydpi="96" />
    <path
       style="color:#000000;font-style:normal;font-variant:normal;font-weight:normal;font-stretch:normal;font-size:medium;line-height:normal;font-family:sans-serif;font-variant-ligatures:normal;font-variant-position:normal;font-variant-caps:normal;font-variant-numeric:normal;font-variant-alternates:normal;font-feature-settings:normal;text-indent:0;text-align:start;text-decoration:none;text-decoration-line:none;text-decoration-style:solid;text-decoration-color:#000000;letter-spacing:normal;word-spacing:normal;text-transform:none;writing-mode:lr-tb;direction:ltr;text-orientation:mixed;dominant-baseline:auto;baseline-shift:baseline;text-anchor:start;white-space:normal;shape-padding:0;clip-rule:nonzero;display:inline;overflow:visible;visibility:visible;opacity:1;isolation:auto;mix-blend-mode:normal;color-interpolation:sRGB;color-interpolation-filters:linearRGB;solid-color:#000000;solid-opacity:1;vector-effect:none;fill:#000000;fill-opacity:1;fill-rule:nonzero;stroke:none;stroke-width:0.26458332px;stroke-linecap:butt;stroke-linejoin:miter;stroke-miterlimit:4;stroke-dasharray:none;stroke-dashoffset:0;stroke-opacity:1;color-rendering:auto;image-rendering:auto;shape-rendering:auto;text-rendering:auto;enable-background:accumulate"
       d="m 80.919457,357.31232 c -10.199576,-0.27549 -20.028687,0.32918 -28.984375,2.87109 l 0.02539,-0.004 c -1.090445,0.0944 -2.411415,0.79237 -3.863281,1.88086 -1.451866,1.08848 -3.031551,2.57166 -4.605469,4.25781 -3.147835,3.37229 -6.275082,7.5532 -8.300781,10.98828 -1.53051,2.59536 -3.146411,5.7082 -2.613281,8.73047 0.228348,1.29449 1.273534,2.36072 2.308594,3.10547 8.031102,5.77858 16.725258,10.20714 28.246093,9.28711 h 0.0059 l 0.0059,-0.002 c 10.896197,-1.83486 24.098882,-7.25204 35.257812,-11.98242 5.579461,-2.36519 10.647911,-4.55966 14.654301,-6.04687 2.00319,-0.74361 3.74073,-1.30934 5.14062,-1.63282 1.39989,-0.32347 2.46469,-0.39566 3.0918,-0.18554 l 0.008,0.002 0.008,0.002 c 11.43597,2.34745 19.11185,-2.76296 28.21485,-4.91406 l 0.10351,-0.0254 v -1.6875 l -0.0625,-0.0391 -16.84961,-10.79297 -0.0371,-0.002 c -16.72592,-0.44868 -34.754621,-3.35141 -51.753912,-3.81055 z m -0.0078,0.27148 c 16.960464,0.46009 34.975693,3.35019 51.716793,3.80274 l 16.72852,10.71484 v 1.3418 c -9.11476,2.17866 -16.70433,7.1995 -28,4.88086 l 0.0156,0.004 c -0.72575,-0.24316 -1.81527,-0.14822 -3.23437,0.17969 -1.41911,0.32791 -3.16498,0.89687 -5.17383,1.64258 -4.0177,1.49142 -9.08767,3.68606 -14.666009,6.05078 -11.15291,4.72783 -24.343052,10.13653 -35.187505,11.96484 -6.9e-4,6e-5 -0.0013,-5e-5 -0.002,0 -11.442204,0.91315 -20.059141,-3.47544 -28.06836,-9.23828 -1.005624,-0.72357 -1.992788,-1.75619 -2.201171,-2.9375 -0.511693,-2.90074 1.055456,-5.96345 2.580078,-8.54883 2.012852,-3.41329 5.132577,-7.58495 8.265625,-10.9414 1.566524,-1.67823 3.137181,-3.15408 4.570312,-4.22852 1.433131,-1.07444 2.733427,-1.74202 3.728516,-1.82812 l 0.01172,-0.002 0.01172,-0.004 c 8.917313,-2.53103 18.720675,-3.12977 28.904297,-2.85352 z"
       id="path927"
       inkscape:connector-curvature="0" />
  </g>
  <g
     style="display:inline"
     id="layer1"
     inkscape:groupmode="layer"
     inkscape:label="Layer 1">
    <path
       inkscape:connector-curvature="0"
       id="path834"
       d="m 30.049109,63.788689 a 5.0081844,4.5357141 0 0 1 -5.008185,4.535714 5.0081844,4.5357141 0 0 1 -5.008184,-4.535714 5.0081844,4.5357141 0 0 1 5.008184,-4.535714 5.0081844,4.5357141 0 0 1 5.008185,4.535714 z"
       style="opacity:1;fill:#4b160a;fill-opacity:1;stroke:#e98436;stroke-width:0.026;stroke-linecap:square;stroke-miterlimit:4;stroke-dasharray:none;stroke-opacity:1" />
    <path
       inkscape:connector-curvature="0"
       style="opacity:1;fill:#eed1b7;fill-opacity:1;stroke:#6ce211;stroke-width:0.026;stroke-linecap:square;stroke-miterlimit:4;stroke-dasharray:none;stroke-opacity:1"
       d="m 199.57143,63.788689 a 5.0081844,4.5357141 0 0 1 -5.00818,4.535714 5.0081844,4.5357141 0 0 1 -5.00819,-4.535714 5.0081844,4.5357141 0 0 1 5.00819,-4.535714 5.0081844,4.5357141 0 0 1 5.00818,4.535714 z"
       id="path837" />
    <g
       id="g896">
      <path
         id="path884"
         style="opacity:1;fill:#d6b69e;fill-opacity:1;stroke:#7dd416;stroke-width:0.026;stroke-linecap:square;stroke-miterlimit:4;stroke-dasharray:none;stroke-opacity:1"
         d="m 175.35396,63.788689 c 0,2.318996 -1.9973,4.224413 -4.50228,4.345931 -1.27268,0.121517 -2.54653,-0.219817 -3.54133,-0.948912 -1.20018,-0.729096 -1.97276,-2.008064 -1.97276,-3.397019 0,-1.388955 0.77258,-2.667923 1.97276,-3.397019 0.9948,-0.729095 2.26865,-1.070429 3.54133,-0.948912 2.50498,0.121518 4.50228,2.026935 4.50228,4.345931 0,0 0,0 0,0"
         inkscape:connector-curvature="0" />
      <path
         id="path886"
         style="opacity:1;fill:#bf9b85;fill-opacity:1;stroke:#8fc71b;stroke-width:0.026;stroke-linecap:square;stroke-miterlimit:4;stroke-dasharray:none;stroke-opacity:1"
         d="m 151.13648,63.788689 c 0,2.132988 -1.75235,3.913115 -3.99637,4.156148 -1.2171,0.243033 -2.49096,0.03823 -3.54133,-0.569347 -1.46114,-0.60758 -2.47867,-2.011837 -2.47867,-3.586801 0,-1.574964 1.01753,-2.979221 2.47867,-3.586801 1.05037,-0.60758 2.32423,-0.81238 3.54133,-0.569347 2.24402,0.243033 3.99637,2.02316 3.99637,4.156148 0,0 0,0 0,0"
         inkscape:connector-curvature="0" />
      <path
         id="path888"
         style="opacity:1;fill:#a8806c;fill-opacity:1;stroke:#a1b920;stroke-width:0.026;stroke-linecap:square;stroke-miterlimit:4;stroke-dasharray:none;stroke-opacity:1"
         d="m 126.91901,63.788689 c 0,1.946979 -1.50742,3.601817 -3.49048,3.966366 -1.16152,0.364548 -2.43537,0.296281 -3.54132,-0.189782 -1.7221,-0.486064 -2.98457,-2.015612 -2.98457,-3.776584 0,-1.760972 1.26247,-3.29052 2.98457,-3.776584 1.10595,-0.486063 2.3798,-0.55433 3.54132,-0.189782 1.98306,0.364549 3.49048,2.019387 3.49048,3.966366 0,0 0,0 0,0"
         inkscape:connector-curvature="0" />
      <path
         id="path890"
         style="opacity:1;fill:#906654;fill-opacity:1;stroke:#b3ac26;stroke-width:0.026;stroke-linecap:square;stroke-miterlimit:4;stroke-dasharray:none;stroke-opacity:1"
         d="m 102.70153,63.788689 c 0,1.760971 -1.26247,3.290518 -2.984568,3.776583 -1.105947,0.486064 -2.379799,0.554331 -3.541323,0.189783 -1.983061,-0.364548 -3.490476,-2.019386 -3.490476,-3.966366 0,-1.94698 1.507415,-3.601818 3.490476,-3.966366 1.161524,-0.364548 2.435376,-0.296281 3.541323,0.189783 1.722098,0.486065 2.984568,2.015612 2.984568,3.776583 0,0 0,0 0,0"
         inkscape:connector-curvature="0" />
      <path
         id="path892"
         style="opacity:1;fill:#794b3b;fill-opacity:1;stroke:#c59e2b;stroke-width:0.026;stroke-linecap:square;stroke-miterlimit:4;stroke-dasharray:none;stroke-opacity:1"
         d="m 78.484058,63.788689 c 0,1.574963 -1.01753,2.97922 -2.478668,3.5868 -1.050371,0.60758 -2.324223,0.812381 -3.541323,0.569349 -2.244022,-0.243032 -3.996378,-2.02316 -3.996378,-4.156149 0,-2.132989 1.752356,-3.913117 3.996378,-4.156149 1.2171,-0.243032 2.490952,-0.03823 3.541323,0.569349 1.461138,0.60758 2.478668,2.011837 2.478668,3.5868 0,0 0,0 0,0"
         inkscape:connector-curvature="0" />
      <path
         id="path894"
         style="opacity:1;fill:#623022;fill-opacity:1;stroke:#d79130;stroke-width:0.026;stroke-linecap:square;stroke-miterlimit:4;stroke-dasharray:none;stroke-opacity:1"
         d="m 54.266583,63.788689 c 0,1.388955 -0.772588,2.667921 -1.972765,3.397017 -0.994794,0.729096 -2.268646,1.07043 -3.541322,0.948914 -2.504983,-0.121516 -4.502282,-2.026934 -4.502282,-4.345931 0,-2.318997 1.997299,-4.224415 4.502282,-4.345931 1.272676,-0.121516 2.546528,0.219818 3.541322,0.948914 1.200177,0.729096 1.972765,2.008062 1.972765,3.397017 0,0 0,0 0,0"
         inkscape:connector-curvature="0" />
    </g>
    <path
       inkscape:connector-curvature="0"
       id="path931"
       d="m 134.6961,100.0439 c -0.83176,-0.0699 -0.95203,-0.161166 -2.72232,-2.064886 -2.18358,-2.34817 -5.64825,-5.54794 -7.58837,-7.00819 l -1.37996,-1.03864 0.89427,-1.13947 c 1.65066,-2.10324 4.05655,-3.88229 6.28225,-4.64541 1.50886,-0.51734 6.56526,-0.87349 10.24657,-0.72173 l 2.99169,0.12333 4.38852,2.98601 c 4.93693,3.35916 7.48245,4.98051 10.30021,6.56063 1.06222,0.59567 1.93015,1.17854 1.92873,1.29526 -0.01,0.80102 -0.22895,0.99573 -1.38043,1.22614 -0.64258,0.12858 -3.54958,0.9071 -6.46,1.73004 -5.6275,1.59122 -8.03471,2.13522 -10.77232,2.43443 -2.07213,0.226476 -5.54564,0.361966 -6.72884,0.262486 z"
       style="opacity:1;fill:url(#linearGradient2460);fill-opacity:1;stroke:#e98436;stroke-width:0.01857143;stroke-linecap:square;stroke-miterlimit:4;stroke-dasharray:none;stroke-opacity:1" />
    <path
       inkscape:connector-curvature="0"
       id="path2476"
       d="m 124.63765,87.128711 c -0.57882,0.03405 -9.82278,-0.530987 -21.53312,0.424682 -20.789268,1.696591 -49.14843,5.339454 -49.14843,5.339454"
       style="fill:none;fill-opacity:1;stroke:url(#linearGradient2470);stroke-width:0.02645833;stroke-linecap:butt;stroke-linejoin:miter;stroke-miterlimit:4;stroke-dasharray:none;stroke-opacity:1"
       sodipodi:nodetypes="csc" />
    <path
       style="fill:none;fill-opacity:1;stroke:none;stroke-width:0.02645833;stroke-linecap:butt;stroke-linejoin:miter;stroke-miterlimit:4;stroke-dasharray:none;stroke-opacity:1"
       d="m 124.63765,87.128711 c -7.75221,0.619932 -25.003,-16.487164 -23.62207,1.907604 1.105,14.719275 -30.719164,1.313555 -47.05948,3.856532"
       id="path2478"
       inkscape:connector-curvature="0"
       sodipodi:nodetypes="csc" />
    <path
       style="fill:#000000;fill-opacity:0;stroke:url(#linearGradient2521);stroke-width:0.02645833;stroke-linecap:butt;stroke-linejoin:miter;stroke-miterlimit:4;stroke-dasharray:none;stroke-opacity:1"
       d="m 125.11012,85.616806 c -0.16573,-0.957372 -22.73022,0.91807 -25.135414,0.377976 -2.708532,-0.608208 -43.283972,4.260317 -42.616819,5.102679"
       id="path2513"
       inkscape:connector-curvature="0"
       sodipodi:nodetypes="csc" />
    <path
       sodipodi:nodetypes="cscc"
       inkscape:connector-curvature="0"
       id="path2523"
       d="M 121.80282,89.963533 C 121.63556,89.007077 99.364597,89.165946 97.895837,89.302074 97.058252,89.379704 55.343493,95.036192 55.5625,95.255199 h -0.09449"
       style="fill:none;stroke:url(#linearGradient2525);stroke-width:0.02645833;stroke-linecap:butt;stroke-linejoin:miter;stroke-miterlimit:4;stroke-dasharray:none;stroke-opacity:1" />
    <path
       sodipodi:nodetypes="csc"
       style="fill:none;fill-opacity:1;stroke:url(#linearGradient2553);stroke-width:0.02645833;stroke-linecap:butt;stroke-linejoin:miter;stroke-miterlimit:4;stroke-dasharray:none;stroke-opacity:1"
       d="m 118.49554,92.609366 c -0.57882,0.03405 -9.82278,-0.530987 -21.533123,0.424682 -20.789268,1.696591 -49.14843,5.339454 -49.14843,5.339454"
       id="path2547"
       inkscape:connector-curvature="0" />
    <path
       sodipodi:nodetypes="cscc"
       inkscape:connector-curvature="0"
       id="path2549"
       d="m 122.46429,93.932283 c -0.16726,-0.956456 -27.162933,-2.592974 -28.631697,-2.456846 -0.837585,0.07763 -42.552344,5.734118 -42.333337,5.953125 h -0.09449"
       style="fill:#000000;fill-opacity:0;stroke:url(#linearGradient2555);stroke-width:0.02645833;stroke-linecap:butt;stroke-linejoin:miter;stroke-miterlimit:4;stroke-dasharray:none;stroke-opacity:1" />
    <path
       style="fill:none;stroke:url(#linearGradient2557);stroke-width:0.02645833;stroke-linecap:butt;stroke-linejoin:miter;stroke-miterlimit:4;stroke-dasharray:none;stroke-opacity:1"
       d="m 122.27529,97.050587 c -0.16726,-0.956456 -27.540901,-2.403986 -29.009661,-2.267858 -0.837585,0.07763 -44.064249,5.734121 -43.845242,5.953121 h -0.09449"
       id="path2551"
       inkscape:connector-curvature="0"
       sodipodi:nodetypes="cscc" />
    <path
       inkscape:connector-curvature="0"
       id="path2559"
       d="m 117.92858,98.467997 c -0.57882,0.03405 -9.82278,-0.530987 -21.533127,0.424682 -20.789268,1.696591 -49.14843,5.339451 -49.14843,5.339451"
       style="fill:none;fill-opacity:1;stroke:url(#linearGradient2565);stroke-width:0.02645833;stroke-linecap:butt;stroke-linejoin:miter;stroke-miterlimit:4;stroke-dasharray:none;stroke-opacity:1"
       sodipodi:nodetypes="csc" />
    <path
       style="fill:url(#linearGradient2605);fill-opacity:0;stroke:url(#linearGradient2567);stroke-width:0.02645833;stroke-linecap:butt;stroke-linejoin:miter;stroke-miterlimit:4;stroke-dasharray:none;stroke-opacity:1"
       d="m 121.23587,99.223949 c -0.16726,-0.956456 -24.044632,-1.931515 -25.513396,-1.795387 -0.837585,0.07763 -45.009189,5.639628 -44.790182,5.858628 h -0.09449"
       id="path2561"
       inkscape:connector-curvature="0"
       sodipodi:nodetypes="cscc" />
    <path
       sodipodi:nodetypes="cscc"
       inkscape:connector-curvature="0"
       id="path2563"
       d="m 118.02306,101.39731 c -0.16726,-0.95645 -20.831826,-0.89208 -22.300586,-0.75595 -0.837585,0.0776 -47.088058,5.73412 -46.869051,5.95312 h -0.09449"
       style="fill:none;stroke:url(#linearGradient2569);stroke-width:0.02645833;stroke-linecap:butt;stroke-linejoin:miter;stroke-miterlimit:4;stroke-dasharray:none;stroke-opacity:1" />
    <path
       sodipodi:nodetypes="csc"
       style="fill:none;fill-opacity:1;stroke:url(#linearGradient2577);stroke-width:0.02645833;stroke-linecap:butt;stroke-linejoin:miter;stroke-miterlimit:4;stroke-dasharray:none;stroke-opacity:1"
       d="m 118.21207,103.94865 c -0.57882,0.034 -7.64942,0.13047 -19.359772,1.08614 -20.789268,1.69659 -49.14843,5.33945 -49.14843,5.33945"
       id="path2571"
       inkscape:connector-curvature="0" />
    <path
       sodipodi:nodetypes="cscc"
       inkscape:connector-curvature="0"
       id="path2573"
       d="m 121.42486,103.0982 c -0.16726,-0.95645 -17.52454,0.24185 -18.99331,0.37798 -0.83758,0.0776 -49.26142,5.73412 -49.042413,5.95312 h -0.09449"
       style="fill:#000000;fill-opacity:0;stroke:url(#linearGradient2579);stroke-width:0.02645833;stroke-linecap:butt;stroke-linejoin:miter;stroke-miterlimit:4;stroke-dasharray:none;stroke-opacity:1" />
    <path
       style="fill:none;stroke:url(#linearGradient2581);stroke-width:0.02645833;stroke-linecap:butt;stroke-linejoin:miter;stroke-miterlimit:4;stroke-dasharray:none;stroke-opacity:1"
       d="m 113.95982,106.02751 c -0.006,-0.95645 -5.98912,-0.4196 -8.22098,-0.28347 -0.83961,0.0512 -54.647579,6.77355 -54.428572,6.99255 h -0.09449"
       id="path2575"
       inkscape:connector-curvature="0"
       sodipodi:nodetypes="cscc" />
    <path
       sodipodi:nodetypes="csc"
       inkscape:connector-curvature="0"
       id="path2583"
       d="m 125.11012,85.616806 c -0.16573,-0.957372 -22.73022,0.91807 -25.135414,0.377976 -2.708532,-0.608208 -43.283972,4.260317 -42.616819,5.102679"
       style="fill:#000000;fill-opacity:0;stroke:url(#linearGradient2521);stroke-width:0.02645833;stroke-linecap:butt;stroke-linejoin:miter;stroke-miterlimit:4;stroke-dasharray:none;stroke-opacity:1" />
    <path
       style="fill:#000000;fill-opacity:0;stroke:url(#linearGradient2521);stroke-width:0.02645833;stroke-linecap:butt;stroke-linejoin:miter;stroke-miterlimit:4;stroke-dasharray:none;stroke-opacity:1"
       d="m 125.11012,85.616806 c -0.16573,-0.957372 -22.73022,0.91807 -25.135414,0.377976 -2.708532,-0.608208 -43.283972,4.260317 -42.616819,5.102679"
       id="path2585"
       inkscape:connector-curvature="0"
       sodipodi:nodetypes="csc" />
    <path
       sodipodi:nodetypes="csc"
       inkscape:connector-curvature="0"
       id="path2587"
       d="M 122.93676,82.781985 C 122.77103,81.824613 99.2616,82.377138 96.856403,81.837044 94.147871,81.228836 54.517371,87.420278 55.184524,88.26264"
       style="fill:#000000;fill-opacity:0;stroke:url(#linearGradient2589);stroke-width:0.02645833;stroke-linecap:butt;stroke-linejoin:miter;stroke-miterlimit:4;stroke-dasharray:none;stroke-opacity:1" />
  </g>
  <g
     inkscape:groupmode="layer"
     id="layer3"
     inkscape:label="Layer 3">
    <path
       style="opacity:1;fill:url(#linearGradient2428);fill-opacity:1;stroke:none;stroke-width:0.26458333;stroke-linecap:butt;stroke-linejoin:miter;stroke-miterlimit:4;stroke-dasharray:none;stroke-opacity:1;filter:url(#filter2432)"
       d="m 138.17834,87.460681 c -1.08763,-0.263033 -2.7174,-0.216271 -6.28083,0.935443 l 0.26727,0.801809 c 0.7494,0.399855 1.94059,-1.027732 4.81085,-0.53454 -1.64437,0.412277 -2.98371,1.739657 -4.27631,3.207234 l 1.06908,0.400904 c 2.79369,-0.656735 3.43063,-0.882122 4.54358,-1.202711 -1.63128,0.929911 -2.93978,1.924378 -2.80633,3.207234 3.52622,1.635311 6.63758,2.953734 9.48806,1.202714 -0.47797,-2.930336 -1.65234,-6.407235 -6.81537,-8.018087 z"
       id="path960"
       inkscape:connector-curvature="0"
       sodipodi:nodetypes="cccccccccc" />
  </g>
</svg>
