<?xml version="1.0" encoding="UTF-8" standalone="no"?>
<!-- Created with Inkscape (http://www.inkscape.org/) -->

<svg
   xmlns:dc="http://purl.org/dc/elements/1.1/"
   xmlns:cc="http://creativecommons.org/ns#"
   xmlns:rdf="http://www.w3.org/1999/02/22-rdf-syntax-ns#"
   xmlns:svg="http://www.w3.org/2000/svg"
   xmlns="http://www.w3.org/2000/svg"
   xmlns:xlink="http://www.w3.org/1999/xlink"
   xmlns:sodipodi="http://sodipodi.sourceforge.net/DTD/sodipodi-0.dtd"
   xmlns:inkscape="http://www.inkscape.org/namespaces/inkscape"
   width="210mm"
   height="297mm"
   viewBox="0 0 210 297"
   version="1.1"
   id="svg8"
   inkscape:export-filename="/home/steve/bitmap.png"
   inkscape:export-xdpi="96"
   inkscape:export-ydpi="96"
   inkscape:version="0.92.3 (2405546, 2018-03-11)"
   sodipodi:docname="drawing.svg">
  <defs
     id="defs2">
    <linearGradient
       inkscape:collect="always"
       id="linearGradient200">
      <stop
         style="stop-color:#ffe680;stop-opacity:1;"
         offset="0"
         id="stop196" />
      <stop
         style="stop-color:#ffffff;stop-opacity:1"
         offset="1"
         id="stop198" />
    </linearGradient>
    <linearGradient
       inkscape:collect="always"
       id="linearGradient82">
      <stop
         style="stop-color:#ff6600;stop-opacity:1;"
         offset="0"
         id="stop78" />
      <stop
         style="stop-color:#ff6600;stop-opacity:0;"
         offset="1"
         id="stop80" />
    </linearGradient>
    <linearGradient
       inkscape:collect="always"
       xlink:href="#linearGradient82"
       id="linearGradient84"
       x1="482.85715"
       y1="33.948254"
       x2="21.428585"
       y2="182.51968"
       gradientUnits="userSpaceOnUse" />
    <linearGradient
       inkscape:collect="always"
       xlink:href="#linearGradient200"
       id="linearGradient202"
       x1="90.465691"
       y1="283.92865"
       x2="79.445045"
       y2="273.92871"
       gradientUnits="userSpaceOnUse" />
  </defs>
  <sodipodi:namedview
     id="base"
     pagecolor="#ffffff"
     bordercolor="#666666"
     borderopacity="1.0"
     inkscape:pageopacity="0.0"
     inkscape:pageshadow="2"
     inkscape:zoom="0.7"
     inkscape:cx="-8.4652549"
     inkscape:cy="811.90115"
     inkscape:document-units="mm"
     inkscape:current-layer="layer1"
     showgrid="false"
     inkscape:snap-global="false"
     inkscape:window-width="1920"
     inkscape:window-height="1023"
     inkscape:window-x="0"
     inkscape:window-y="0"
     inkscape:window-maximized="1" />
  <metadata
     id="metadata5">
    <rdf:RDF>
      <cc:Work
         rdf:about="">
        <dc:format>image/svg+xml</dc:format>
        <dc:type
           rdf:resource="http://purl.org/dc/dcmitype/StillImage" />
        <dc:title></dc:title>
      </cc:Work>
    </rdf:RDF>
  </metadata>
  <g
     inkscape:label="Layer 1"
     inkscape:groupmode="layer"
     id="layer1">
    <path
       style="fill:#ff00ff;stroke:#000000;stroke-width:0.26458332px;stroke-linecap:butt;stroke-linejoin:miter;stroke-opacity:1"
       d="M 40.821427,186.25297 Z"
       id="path16"
       inkscape:connector-curvature="0" />
    <path
       style="fill:#ffdd55;stroke:#000000;stroke-width:0.26458332px;stroke-linecap:butt;stroke-linejoin:miter;stroke-opacity:1"
       d="M 25.702381,191.92261 C 30.450949,122.67338 70.491199,86.097205 131.53571,72.104165 l 10.58333,9.827381 C 75.782657,124.7497 47.601662,161.40753 30.994048,199.48214 Z"
       id="path90"
       inkscape:connector-curvature="0"
       sodipodi:nodetypes="ccccc" />
    <path
       style="fill:#554400;stroke:#000000;stroke-width:0.26458332px;stroke-linecap:butt;stroke-linejoin:miter;stroke-opacity:1"
       d="m 131.91369,71.348213 c 9.07143,3.073996 18.14285,-3.755574 27.21428,-6.047618 l 3.40179,3.401785 c 1.21931,0.858912 -22.98344,9.317638 -20.03274,12.473212 v 0 0"
       id="path156"
       inkscape:connector-curvature="0"
       sodipodi:nodetypes="cccccc" />
    <path
       style="fill:none;stroke:#000000;stroke-width:0.26458332px;stroke-linecap:butt;stroke-linejoin:miter;stroke-opacity:1"
       d="M 26.458333,190.41071 C 33.48162,168.98982 39.282147,147.8511 58.964284,123.50893 78.304969,102.27655 93.359348,93.903097 107.72321,87.601188 l 29.48215,-11.339284 -1.51191,-0.377976"
       id="path158"
       inkscape:connector-curvature="0"
       sodipodi:nodetypes="ccccc" />
    <path
       style="fill:url(#linearGradient202);stroke:#241f1c;stroke-width:1.42857146"
       d="m 101.18724,706.95523 c -0.28676,-13.7036 8.11101,-63.9625 15.80182,-94.57057 38.84537,-154.59771 139.95973,-261.24329 301.97426,-318.49302 18.92773,-6.68833 56.34055,-17.74315 70.94663,-20.96345 l 8.08948,-1.78354 7.78626,6.86482 c 4.80347,4.23501 7.55888,7.7318 7.19271,9.12797 -0.38363,1.46272 -12.31421,6.74688 -33.7329,14.94058 -63.92381,24.45402 -80.45485,31.2481 -100.99647,41.50844 -43.52226,21.73894 -76.33804,44.84998 -116.0135,81.70433 -37.17644,34.53304 -61.37386,64.70317 -88.55055,110.40773 -22.04513,37.07454 -59.91895,92.34972 -56.31651,157.98779 2.23637,40.74769 -15.98022,15.66029 -16.18123,13.26892 z"
       id="path160"
       inkscape:connector-curvature="0"
       transform="scale(0.26458333)"
       sodipodi:nodetypes="cssscccsssssc"
       inkscape:export-xdpi="96"
       inkscape:export-ydpi="96" />
    <path
       style="fill:#aa8800;stroke:#000000;stroke-width:0.26458332px;stroke-linecap:butt;stroke-linejoin:miter;stroke-opacity:1"
       d="m 31.372024,197.97024 -0.377976,-9.82739 -5.291667,1.88989 z"
       id="path162"
       inkscape:connector-curvature="0" />
    <path
       style="fill:#aa8800;stroke:#241f1c;stroke-width:0.35714287"
       d="m 107.28498,738.70416 -9.428806,-13.48214 0.121433,-2.24059 0.121433,-2.24058 9.89231,13.84773 c 5.44077,7.61625 10.02478,14.06258 10.18668,14.32518 0.29871,0.48451 -0.73653,3.27255 -1.21515,3.27255 -0.13701,0 -4.49206,-6.06697 -9.6779,-13.48215 z"
       id="path164"
       inkscape:connector-curvature="0"
       transform="scale(0.26458333)" />
    <path
       style="fill:#aa8800;stroke:#241f1c;stroke-width:0.35714287"
       d="m 106.97338,739.97737 -10.086376,-14.39821 0.201526,-3.2178 c 0.110839,-1.7698 0.05613,-3.45305 -0.121563,-3.74058 -0.198875,-0.32178 -0.185989,-0.6075 0.03352,-0.74316 0.196133,-0.12122 0.74519,-4.4202 1.220126,-9.55331 7.802877,-84.33339 30.031977,-157.00309 66.879677,-218.638 5.36612,-8.97589 15.00508,-23.76271 15.29864,-23.46916 0.1047,0.10471 -1.39961,2.57543 -3.34292,5.49048 -14.2409,21.36201 -27.44686,45.90582 -38.20977,71.01439 -20.31344,47.38881 -33.82717,102.56589 -39.536397,161.42857 -0.495353,5.10714 -0.992875,10.20982 -1.105604,11.33929 -0.112728,1.12946 -0.13625,2.05357 -0.05227,2.05357 0.08398,0 0.710168,-0.23293 1.391529,-0.51762 1.140462,-0.47652 1.304232,-0.74728 2.062352,-3.40983 0.45294,-1.59072 0.95589,-2.75984 1.11768,-2.59806 0.16178,0.16179 -0.0183,1.3263 -0.4003,2.5878 -0.38196,1.2615 -0.62192,2.36618 -0.53326,2.45484 0.0887,0.0887 1.48982,-0.33679 3.1137,-0.94545 3.53742,-1.32587 10.92199,-3.98987 11.77559,-4.24808 0.42821,-0.12953 0.66033,0.0653 0.78248,0.65684 0.0955,0.46254 0.4553,8.99832 0.79951,18.96839 0.34421,9.97007 0.7367,18.00578 0.87221,17.85714 0.1355,-0.14864 1.98944,-4.1274 4.11986,-8.84169 8.51169,-18.835 22.49375,-45.94761 33.98115,-65.89285 49.47516,-85.90222 118.49349,-164.83756 212.05208,-242.52111 11.62054,-9.64877 16.19155,-13.27214 16.57391,-13.1379 0.19316,0.0678 -1.44529,1.56972 -3.64098,3.33758 -64.06032,51.57803 -121.63664,109.00347 -164.71739,164.28571 -39.31668,50.4521 -71.86687,104.7353 -97.22679,162.14286 -1.47513,3.33929 -2.8021,6.20241 -2.9488,6.36249 -0.14671,0.16009 -4.80561,-6.18813 -10.35312,-14.10714 z m 11.05304,11.15529 c 0.80926,-1.72782 0.81337,-1.79064 0.18096,-2.76786 -2.23874,-3.45941 -19.948292,-27.96421 -20.209654,-27.96421 -0.176068,0 -0.318551,1.16518 -0.316629,2.58929 l 0.0035,2.58928 9.550073,13.65471 c 5.25254,7.51009 9.64314,13.65741 9.75688,13.66072 0.11375,0.003 0.57944,-0.78957 1.03487,-1.76193 z m -0.50366,-20.85321 c -0.30909,-7.6923 -0.56142,-14.99047 -0.56072,-16.21814 7.9e-4,-1.3986 -0.1468,-2.23215 -0.39526,-2.23215 -0.29682,0 -14.94717,5.13141 -18.106132,6.34182 -0.256824,0.0984 -0.381128,0.40259 -0.27623,0.67595 0.104898,0.27335 4.573952,6.63634 9.931242,14.13996 9.02896,12.64632 9.74886,13.55659 9.8548,12.46076 0.0629,-0.65021 -0.1386,-7.47589 -0.4477,-15.1682 z"
       id="path166"
       inkscape:connector-curvature="0"
       transform="scale(0.26458333)" />
    <path
       style="fill:#aa8800;stroke:#241f1c;stroke-width:0.35714287"
       d="m 121.8046,649.86488 c 0.30713,-2.51004 2.99567,-12.92518 4.9755,-19.27461 4.45249,-14.27938 11.39563,-30.62885 19.65191,-46.27562 5.35766,-10.15348 13.7016,-24.79138 13.97553,-24.51746 0.0794,0.0794 -2.39256,5.26997 -5.49324,11.5346 -10.63048,21.47792 -19.95448,43.59761 -29.18945,69.24737 -1.69734,4.71429 -3.32293,9.13393 -3.61241,9.82143 l -0.52634,1.25 z"
       id="path168"
       inkscape:connector-curvature="0"
       transform="scale(0.26458333)" />
    <path
       style="fill:#aa8800;stroke:#241f1c;stroke-width:0.35714287"
       d="m 98.391888,717.0146 c 0,-0.89182 2.363992,-23.34608 3.053872,-29.007 2.13912,-17.55301 5.30241,-36.38205 9.07803,-54.03558 1.67569,-7.83496 6.17634,-25.94809 6.33318,-25.48823 0.0759,0.22254 -0.34246,2.31183 -0.92969,4.64286 -6.4192,25.4812 -13.97558,68.86899 -15.39267,88.38277 -0.39481,5.43671 -0.29595,6.22521 1.01987,8.13425 0.62717,0.90992 0.62153,1.01117 -0.20645,3.70399 -0.70353,2.28811 -1.03387,2.86294 -1.903694,3.31275 -0.578846,0.29933 -1.052448,0.45872 -1.052448,0.35419 z"
       id="path170"
       inkscape:connector-curvature="0"
       transform="scale(0.26458333)" />
    <path
       style="fill:#aa8800;stroke:#241f1c;stroke-width:0.35714287"
       d=""
       id="path172"
       inkscape:connector-curvature="0"
       transform="scale(0.26458333)" />
    <path
       style="fill:#aa8800;stroke:#241f1c;stroke-width:0.35714287"
       d=""
       id="path174"
       inkscape:connector-curvature="0"
       transform="scale(0.26458333)" />
    <path
       style="fill:#aa8800;stroke:#241f1c;stroke-width:0.35714287"
       d=""
       id="path176"
       inkscape:connector-curvature="0"
       transform="scale(0.26458333)" />
    <path
       style="fill:#aa8800;stroke:#241f1c;stroke-width:0.35714287"
       d="m 104.67518,713.04374 c -1.02431,-1.18287 -1.47388,-1.48731 -1.69096,-1.14506 -0.22633,0.35685 -0.29696,0.36148 -0.30115,0.0198 -0.01,-0.77802 -0.0673,-0.95318 -0.7653,-2.32143 -0.37579,-0.73662 -0.81392,-1.3393 -0.97362,-1.3393 -0.38142,0 -0.48121,-0.67231 -0.43732,-2.94642 0.0518,-2.68444 0.74061,-10.38188 1.31828,-14.73215 0.32213,-2.42582 0.56004,-4.59464 0.62684,-5.71428 0.0352,-0.58929 0.1802,-1.25622 0.32232,-1.48207 0.14212,-0.22586 0.26083,-0.78836 0.2638,-1.25 0.003,-0.46165 0.0966,-1.48222 0.20808,-2.26793 0.11147,-0.78572 0.2325,-1.83036 0.26896,-2.32143 0.0365,-0.49107 0.19949,-1.10289 0.3623,-1.35959 0.1628,-0.25669 0.19993,-0.84953 0.0825,-1.31739 -0.11742,-0.46787 -0.0427,-0.95623 0.16604,-1.08525 0.20875,-0.12901 0.34616,-0.58082 0.30535,-1.00403 -0.0408,-0.4232 0.0473,-1.05071 0.1957,-1.39446 0.14843,-0.34375 0.17935,-0.86092 0.0687,-1.14927 -0.11065,-0.28835 -0.0457,-0.62035 0.14424,-0.73777 0.18999,-0.11741 0.34223,-0.64488 0.33832,-1.17215 -0.004,-0.52726 0.0864,-1.52116 0.20077,-2.20866 0.11433,-0.6875 0.25583,-1.57143 0.31444,-1.96429 0.0586,-0.39286 0.22478,-0.99553 0.36927,-1.33928 0.14449,-0.34375 0.17218,-0.86093 0.0615,-1.14928 -0.11065,-0.28835 -0.0324,-0.62862 0.17399,-0.75615 0.20635,-0.12753 0.30124,-0.61866 0.21087,-1.09139 -0.0904,-0.47273 -0.0121,-0.95357 0.17388,-1.06853 0.186,-0.11495 0.24174,-0.59326 0.12387,-1.0629 -0.12787,-0.50948 -0.0572,-0.8539 0.17519,-0.8539 0.21423,0 0.35411,-0.3616 0.31085,-0.80357 -0.0433,-0.44196 0.0398,-1.07712 0.18466,-1.41147 0.14482,-0.33434 0.15488,-0.78335 0.0224,-0.99779 -0.13253,-0.21444 -0.0484,-0.62187 0.18688,-0.90541 0.23532,-0.28353 0.33653,-0.75349 0.22492,-1.04434 -0.11161,-0.29086 -0.0362,-0.63186 0.16755,-0.7578 0.20377,-0.12594 0.27404,-0.61322 0.15617,-1.08286 -0.12787,-0.50948 -0.0572,-0.8539 0.17519,-0.8539 0.21423,0 0.35411,-0.36161 0.31085,-0.80357 -0.0433,-0.44197 0.0454,-1.09176 0.19713,-1.44398 0.15169,-0.35222 0.17698,-0.73921 0.0562,-0.85999 -0.12077,-0.12078 -0.0423,-0.43323 0.17441,-0.69434 0.2167,-0.26111 0.30268,-0.71271 0.19107,-1.00356 -0.11161,-0.29086 -0.0352,-0.63247 0.16973,-0.75914 0.20496,-0.12668 0.29339,-0.53345 0.1965,-0.90394 -0.0969,-0.37049 -0.0165,-0.77228 0.17857,-0.89286 0.1951,-0.12058 0.27546,-0.52236 0.17857,-0.89286 -0.0969,-0.37049 -0.0175,-0.77167 0.1764,-0.89151 0.1939,-0.11984 0.25611,-0.60214 0.13824,-1.07178 -0.13176,-0.52497 -0.0581,-0.8539 0.19127,-0.8539 0.24004,0 0.33591,-0.36443 0.2349,-0.89286 -0.0939,-0.49107 -0.0135,-0.89285 0.17857,-0.89285 0.19209,0 0.27244,-0.40179 0.17857,-0.89286 -0.0939,-0.49107 -0.0135,-0.89286 0.17859,-0.89286 0.1921,0 0.26526,-0.32127 0.16257,-0.71393 -0.10268,-0.39266 -0.0271,-0.81258 0.16804,-0.93316 0.1951,-0.12058 0.27541,-0.52253 0.17847,-0.89321 -0.0969,-0.37069 -0.0118,-0.67398 0.1891,-0.67398 0.20093,0 0.28853,-0.40179 0.19466,-0.89286 -0.0939,-0.49107 -0.0135,-0.89286 0.17857,-0.89286 0.19209,0 0.27245,-0.40178 0.17857,-0.89285 -0.0939,-0.49108 -0.0135,-0.89286 0.17859,-0.89286 0.1921,0 0.26522,-0.32143 0.16248,-0.71429 -0.10273,-0.39285 -0.0224,-0.71428 0.17856,-0.71428 0.20093,0 0.28853,-0.40179 0.19466,-0.89286 -0.0939,-0.49107 -0.0135,-0.89286 0.17859,-0.89286 0.1921,0 0.26521,-0.32143 0.16248,-0.71428 -0.10274,-0.39286 -0.0224,-0.71429 0.17857,-0.71429 0.20095,0 0.28135,-0.32127 0.17866,-0.71393 -0.10268,-0.39266 -0.0271,-0.81258 0.16804,-0.93316 0.1951,-0.12058 0.27541,-0.52253 0.17847,-0.89322 -0.0969,-0.37069 -0.0118,-0.67397 0.18912,-0.67397 0.20094,0 0.2813,-0.32143 0.17857,-0.71429 -0.10274,-0.39286 -0.0224,-0.71429 0.17857,-0.71429 0.20095,0 0.2813,-0.32142 0.17857,-0.71428 -0.10273,-0.39286 -0.0224,-0.71429 0.17857,-0.71429 0.20095,0 0.28131,-0.32143 0.17857,-0.71428 -0.10273,-0.39286 -0.0411,-0.71429 0.13692,-0.71429 0.53856,0 0.36252,-1.07895 -0.21201,-1.29942 -0.29464,-0.11306 -0.53571,-0.35858 -0.53571,-0.54558 0,-0.18701 0.18415,-0.2262 0.40923,-0.0871 0.28943,0.17887 0.33751,-0.0328 0.16426,-0.72314 -0.17872,-0.71207 -0.1293,-0.90455 0.18274,-0.7117 0.30031,0.1856 0.36773,0.035 0.22632,-0.50579 -0.11077,-0.42358 -0.0675,-0.77014 0.0961,-0.77014 0.16363,0 0.38341,-0.28125 0.48839,-0.625 0.10498,-0.34375 0.12623,0.0179 0.0472,0.80358 l -0.14365,1.42857 0.48368,-1.60715 c 0.26603,-0.88392 1.37482,-4.91237 2.46398,-8.95211 6.92106,-25.67036 17.22939,-53.94403 27.57924,-75.64427 1.25257,-2.62622 2.18998,-4.9164 2.08313,-5.08928 -0.10684,-0.17289 -0.0146,-0.31434 0.20503,-0.31434 0.21962,0 0.29998,-0.16071 0.17858,-0.35714 -0.1214,-0.19643 -0.0411,-0.35714 0.17857,-0.35714 0.21961,0 0.29997,-0.16072 0.17857,-0.35714 -0.1214,-0.19643 -0.041,-0.35715 0.17857,-0.35715 0.21961,0 0.29997,-0.16071 0.17857,-0.35714 -0.1214,-0.19643 -0.041,-0.35714 0.17857,-0.35714 0.21962,0 0.29997,-0.16072 0.17857,-0.35715 -0.1214,-0.19642 -0.041,-0.35714 0.17858,-0.35714 0.21961,0 0.29997,-0.16071 0.17857,-0.35714 -0.1214,-0.19643 -0.0411,-0.35714 0.17857,-0.35714 0.21961,0 0.29997,-0.16072 0.17857,-0.35715 -0.1214,-0.19643 -0.041,-0.35714 0.17857,-0.35714 0.21962,0 0.29997,-0.16071 0.17857,-0.35714 -0.1214,-0.19643 -0.041,-0.35715 0.17857,-0.35715 0.21962,0 0.29998,-0.16071 0.17858,-0.35714 -0.1214,-0.19643 -0.0411,-0.35714 0.17857,-0.35714 0.21961,0 0.29997,-0.16072 0.17857,-0.35714 -0.1214,-0.19643 -0.041,-0.35715 0.17857,-0.35715 0.21961,0 0.29997,-0.16071 0.17857,-0.35714 -0.1214,-0.19643 -0.041,-0.35714 0.17857,-0.35714 0.21962,0 0.29997,-0.16072 0.17857,-0.35715 -0.1214,-0.19642 -0.041,-0.35714 0.17858,-0.35714 0.21961,0 0.29997,-0.16071 0.17857,-0.35714 -0.1214,-0.19643 -0.0411,-0.35714 0.17857,-0.35714 0.21961,0 0.29997,-0.16072 0.17857,-0.35715 -0.1214,-0.19643 -0.041,-0.35714 0.17857,-0.35714 0.21962,0 0.29997,-0.16071 0.17857,-0.35714 -0.1214,-0.19643 -0.0238,-0.35715 0.21702,-0.35715 0.24076,0 0.34399,-0.0937 0.22941,-0.20833 -0.11458,-0.11458 0.10557,-0.52223 0.48922,-0.90588 0.38365,-0.38366 0.60185,-0.85241 0.48487,-1.04167 -0.11697,-0.18926 -0.033,-0.34412 0.18663,-0.34412 0.21961,0 0.29997,-0.16071 0.17857,-0.35714 -0.1214,-0.19643 -0.0411,-0.35714 0.17857,-0.35714 0.21961,0 0.29997,-0.16072 0.17857,-0.35714 -0.1214,-0.19643 -0.041,-0.35715 0.17857,-0.35715 0.21962,0 0.29997,-0.16071 0.17857,-0.35714 -0.1214,-0.19643 -0.041,-0.35714 0.17857,-0.35714 0.21962,0 0.29998,-0.16072 0.17858,-0.35715 -0.1214,-0.19642 -0.0411,-0.35714 0.17857,-0.35714 0.21961,0 0.29997,-0.16071 0.17857,-0.35714 -0.1214,-0.19643 -0.041,-0.35714 0.17857,-0.35714 0.21961,0 0.31501,-0.13638 0.212,-0.30306 -0.10301,-0.16668 0.11889,-0.63172 0.49313,-1.03341 0.37423,-0.4017 0.58296,-0.82782 0.46384,-0.94695 -0.11912,-0.11912 -0.0196,-0.21658 0.22115,-0.21658 0.24077,0 0.33842,-0.16072 0.21702,-0.35715 -0.1214,-0.19643 -0.0773,-0.35714 0.098,-0.35714 0.17529,0 0.32266,-0.20089 0.3275,-0.44643 0.0184,-0.93348 9.91865,-17.53389 16.08873,-26.97704 1.8335,-2.80611 3.25399,-5.23088 3.15666,-5.38836 -0.0973,-0.15749 0.29199,-0.83479 0.86515,-1.50511 0.57316,-0.67033 1.04864,-1.06876 1.05662,-0.88541 0.008,0.18335 1.48558,-1.74522 3.28355,-4.28572 8.7671,-12.38772 19.2406,-25.63403 27.72535,-35.0655 1.63459,-1.81697 2.89273,-3.30357 2.79589,-3.30357 -0.0968,0 0.69822,-0.82689 1.76682,-1.83752 1.0686,-1.01064 1.94291,-2.04617 1.94291,-2.30118 0,-0.64372 1.42079,-1.57559 2.40225,-1.57559 0.66552,0 -0.17545,1.09577 -4.59109,5.98214 -46.09824,51.01255 -77.89279,111.23571 -97.05715,183.83929 -7.12248,26.98327 -15.27582,72.45366 -16.83162,93.86831 l -0.38482,5.29688 0.96704,1.65012 c 0.53187,0.90758 1.87327,2.58202 2.98088,3.72098 1.10761,1.13897 1.89856,2.07085 1.75767,2.07085 -0.1409,0 -0.47021,0.0733 -0.73181,0.16293 -0.2616,0.0896 -1.10351,-0.56215 -1.87092,-1.44835 z m 11.46068,-100.21011 c -0.11401,-0.28491 -0.19864,-0.20028 -0.21578,0.21577 -0.0155,0.37649 0.0689,0.58743 0.18758,0.46875 0.11868,-0.11867 0.13137,-0.42671 0.0282,-0.68452 z"
       id="path178"
       inkscape:connector-curvature="0"
       transform="scale(0.26458333)" />
    <path
       style="fill:#aa8800;stroke:#241f1c;stroke-width:0.35714287"
       d=""
       id="path180"
       inkscape:connector-curvature="0"
       transform="scale(0.26458333)" />
    <path
       style="fill:#aa8800;stroke:#241f1c;stroke-width:0.35714287"
       d=""
       id="path182"
       inkscape:connector-curvature="0"
       transform="scale(0.26458333)" />
    <path
       style="fill:#aa8800;stroke:#241f1c;stroke-width:0.35714287"
       d="m 118.09114,603.61488 c 0,-0.49107 0.0811,-0.69197 0.18013,-0.44643 0.0991,0.24553 0.0991,0.64732 0,0.89286 -0.0991,0.24553 -0.18013,0.0446 -0.18013,-0.44643 z"
       id="path184"
       inkscape:connector-curvature="0"
       transform="scale(0.26458333)" />
    <path
       style="fill:#aa8800;stroke:#241f1c;stroke-width:0.35714287"
       d=""
       id="path186"
       inkscape:connector-curvature="0"
       transform="scale(0.26458333)" />
    <path
       style="fill:#aa8800;stroke:#241f1c;stroke-width:0.35714287"
       d="m 117.37685,606.11488 c 0,-0.49107 0.0811,-0.69197 0.18014,-0.44643 0.0991,0.24553 0.0991,0.64732 0,0.89286 -0.0991,0.24553 -0.18014,0.0446 -0.18014,-0.44643 z"
       id="path188"
       inkscape:connector-curvature="0"
       transform="scale(0.26458333)" />
    <path
       style="fill:#aa8800;stroke:#241f1c;stroke-width:0.35714287"
       d=""
       id="path190"
       inkscape:connector-curvature="0"
       transform="scale(0.26458333)" />
    <path
       style="fill:#aa8800;stroke:#241f1c;stroke-width:0.35714287"
       d="m 121.27723,592.33511 c 0.0171,-0.41605 0.10176,-0.50067 0.21577,-0.21577 0.10317,0.25781 0.0905,0.56585 -0.0282,0.68452 -0.11867,0.11868 -0.20308,-0.0923 -0.18757,-0.46875 z"
       id="path192"
       inkscape:connector-curvature="0"
       transform="scale(0.26458333)" />
    <path
       style="fill:#aa8800;stroke:#241f1c;stroke-width:1.42857146"
       d="m 519.70773,288.40416 -15.88613,-14.71785 14.71372,-0.84233 c 17.75206,-1.01626 21.07893,-1.90853 50.90836,-13.65371 31.14182,-12.26193 30.54436,-12.17564 37.47143,-5.41154 3.0908,3.01808 5.61964,5.91336 5.61964,6.43395 0,0.52058 -10.125,5.60557 -22.5,11.29998 -28.41347,13.07456 -42.32539,20.66373 -49.10174,26.78576 l -5.33914,4.82359 z"
       id="path194"
       inkscape:connector-curvature="0"
       transform="scale(0.26458333)" />
  </g>
</svg>
